<?xml version="1.0" encoding="UTF-8"?>
<svg id="Layer_1" data-name="Layer 1" xmlns="http://www.w3.org/2000/svg" viewBox="0 0 2923 1000">
    <defs>
        <style>
            .cls-1, .cls-2 {
            stroke-width: 0px;
            }

            .cls-2 {
            fill: #fff;
            }
        </style>
    </defs>
    <rect class="cls-2" width="1000" height="1000"/>
    <polygon class="cls-1" points="642.17 211 236.75 790 358.83 790 764.25 211 642.17 211"/>
    <g>
        <path class="cls-2" d="m1700.13,777.07c-37.02,11.54-71.28,17.33-102.79,17.33-59.34,0-111.59-12.21-156.74-36.63-45.17-24.42-79.95-57.89-104.36-100.43-24.42-42.53-36.63-90.31-36.63-143.35,0-61.95,13.12-115.65,39.38-161.08,26.25-45.41,61.7-80.21,106.33-104.36,44.63-24.15,93.46-36.23,146.5-36.23,32.02,0,62.22,3.82,90.58,11.42,28.35,7.62,53.82,17.72,76.4,30.32l-25.21,70.1c-16.81-9.45-37.94-17.72-63.41-24.81-25.48-7.09-48.44-10.63-68.92-10.63-44.11,0-83.1,8.94-116.97,26.78-33.87,17.86-60,43.32-78.37,76.4-18.39,33.08-27.57,71.68-27.57,115.79,0,40.96,9.18,77.46,27.57,109.48,18.37,32.04,44.37,56.85,77.98,74.43,33.6,17.6,71.94,26.39,115,26.39,19.95,0,39.38-1.97,58.29-5.91,18.9-3.94,34.66-9.57,47.26-16.93v-112.64h-113.42v-73.25h190.61v230c-17.33,13.66-44.5,26.26-81.52,37.81Z"/>
        <path class="cls-2" d="m2015.99,491.94c15.48-13.65,31.9-24.15,49.23-31.51,17.33-7.35,32.55-11.29,45.68-11.82l-3.15,73.25c-23.63-1.05-45.03,3.68-64.19,14.18-19.17,10.51-34.14,25.08-44.9,43.72-10.77,18.65-16.15,38.47-16.15,59.47v148.87h-73.25v-326.09h65.38l5.51,77.19c8.39-17.85,20.34-33.6,35.84-47.26Z"/>
        <path class="cls-2" d="m2186.12,534.08c15.48-26.51,37.02-47.38,64.59-62.62,27.57-15.22,58.68-22.84,93.34-22.84s65.5,7.62,92.55,22.84c27.04,15.24,48.05,35.97,63.01,62.23,14.96,26.26,22.45,55.66,22.45,88.22s-7.48,62.1-22.45,88.61c-14.97,26.52-36.11,47.4-63.41,62.62-27.31,15.22-58.56,22.84-93.73,22.84s-64.86-7.22-92.16-21.66c-27.31-14.44-48.71-34.78-64.19-61.04-15.49-26.25-23.24-56.71-23.24-91.37,0-32.02,7.74-61.3,23.24-87.82Zm64.59,145.32c9.18,17.33,21.78,30.99,37.81,40.96,16.01,9.98,33.73,14.97,53.17,14.97,30.45,0,55.65-10.76,75.62-32.29,19.95-21.52,29.93-48.31,29.93-80.34s-9.98-58.94-29.93-80.74c-19.96-21.78-45.17-32.69-75.62-32.69-19.96,0-37.81,5.12-53.56,15.36-15.75,10.24-28.23,24.02-37.41,41.35-9.19,17.33-13.78,36.23-13.78,56.71s4.59,39.38,13.78,56.71Z"/>
        <polygon class="cls-2" points="2786.71 590.4 2907.22 493.51 2862.32 454.13 2693.76 589.61 2693.76 212.32 2620.51 212.32 2620.51 788.1 2693.76 788.1 2693.76 666.01 2736.3 631.35 2837.12 788.1 2922.97 788.1 2786.71 590.4"/>
    </g>
</svg>